<svg width="84" height="84" viewBox="0 0 84 84" fill="none" xmlns="http://www.w3.org/2000/svg">
<circle cx="42" cy="42" r="42" fill="black"/>
<path d="M61.9732 50.0047C61.2353 35.9828 45.4297 15 42.4999 15C39.5515 15 23.5627 30.9381 23.0144 49.998C23.0109 50.118 23.0295 50.2331 23.0662 50.3399C23.0223 50.8873 23 51.441 23 52C23 63.0457 31.7305 72 42.5 72C53.2695 72 62 63.0457 62 52C62 51.4377 61.9774 50.8808 61.933 50.3303C61.9647 50.2284 61.9792 50.1189 61.9732 50.0047Z" fill="#3EBBDD"/>
<path d="M46 65.8921C36.1292 63.6267 31.6925 61.3754 30.8961 51C29.8203 52.4729 28.9039 53.0473 29.0081 55.4676C30.0462 62.3096 35.9307 67.8777 40.9654 66.8849L46 65.8921Z" fill="#0097C0"/>
</svg>
