<svg width="119" height="119" viewBox="0 0 119 119" fill="none" xmlns="http://www.w3.org/2000/svg">
<g filter="url(#filter0_d)">
<circle cx="55.2289" cy="55.2289" r="55.2289" fill="black"/>
<path d="M40.6534 55.5708C41.0268 52.6796 38.6594 47.8217 38.0762 47.7158C37.4893 47.6092 33.7154 50.287 32.899 54.1608C32.8939 54.1852 32.8933 54.2094 32.8966 54.2325C32.8676 54.3428 32.8426 54.4551 32.8219 54.5693C32.412 56.8257 33.8175 58.9706 35.9611 59.36C38.1048 59.7494 40.1748 58.2358 40.5847 55.9794C40.6055 55.8645 40.6217 55.7499 40.6333 55.6358C40.6434 55.6162 40.6503 55.5943 40.6534 55.5708Z" fill="#AEEEFF"/>
<path d="M48.6539 70.3889C49.0273 67.4977 46.6599 62.6398 46.0767 62.5339C45.4898 62.4273 41.7159 65.1051 40.8995 68.9789C40.8944 69.0033 40.8938 69.0275 40.8971 69.0506C40.8681 69.1609 40.8431 69.2732 40.8223 69.3874C40.4125 71.6439 41.818 73.7887 43.9616 74.1781C46.1052 74.5675 48.1753 73.0539 48.5852 70.7975C48.606 70.6826 48.6222 70.568 48.6338 70.4539C48.6439 70.4343 48.6508 70.4124 48.6539 70.3889Z" fill="#AEEEFF"/>
<path d="M83.293 48.7131C83.6665 45.822 81.299 40.964 80.7159 40.8581C80.129 40.7515 76.3551 43.4293 75.5387 47.3032C75.5335 47.3275 75.5329 47.3517 75.5363 47.3749C75.5072 47.4851 75.4822 47.5974 75.4615 47.7116C75.0516 49.9681 76.4571 52.113 78.6008 52.5023C80.7444 52.8917 82.8144 51.3781 83.2243 49.1217C83.2452 49.0068 83.2613 48.8922 83.2729 48.7782C83.283 48.7585 83.29 48.7366 83.293 48.7131Z" fill="#AEEEFF"/>
<path d="M66.7672 73.6792C67.1406 70.788 64.7731 65.9301 64.19 65.8242C63.6031 65.7176 59.8292 68.3954 59.0128 72.2692C59.0076 72.2936 59.0071 72.3178 59.0104 72.3409C58.9814 72.4512 58.9564 72.5635 58.9356 72.6777C58.5258 74.9341 59.9313 77.079 62.0749 77.4684C64.2185 77.8578 66.2886 76.3442 66.6984 74.0877C66.7193 73.9729 66.7355 73.8583 66.7471 73.7442C66.7572 73.7246 66.7641 73.7027 66.7672 73.6792Z" fill="#AEEEFF"/>
<path d="M37.482 80.3882C37.8554 77.497 35.488 72.6391 34.9048 72.5332C34.318 72.4266 30.544 75.1044 29.7276 78.9782C29.7225 79.0026 29.7219 79.0268 29.7253 79.0499C29.6962 79.1602 29.6712 79.2725 29.6505 79.3867C29.2406 81.6431 30.6461 83.788 32.7897 84.1774C34.9334 84.5668 37.0034 83.0532 37.4133 80.7967C37.4342 80.6819 37.4503 80.5673 37.4619 80.4532C37.472 80.4335 37.4789 80.4117 37.482 80.3882Z" fill="#AEEEFF"/>
<path d="M75.0025 87.2033C75.3759 84.3122 73.0085 79.4543 72.4253 79.3483C71.8385 79.2417 68.0645 81.9196 67.2481 85.7934C67.243 85.8178 67.2424 85.842 67.2458 85.8651C67.2167 85.9753 67.1917 86.0876 67.171 86.2018C66.7611 88.4583 68.1666 90.6032 70.3102 90.9926C72.4539 91.382 74.5239 89.8684 74.9338 87.6119C74.9547 87.4971 74.9708 87.3825 74.9824 87.2684C74.9925 87.2487 74.9995 87.2269 75.0025 87.2033Z" fill="#AEEEFF"/>
<path d="M60.0606 59.0959C60.434 56.2048 58.0666 51.3469 57.4834 51.2409C56.8966 51.1343 53.1226 53.8121 52.3062 57.686C52.3011 57.7103 52.3005 57.7345 52.3039 57.7577C52.2748 57.8679 52.2498 57.9802 52.2291 58.0944C51.8192 60.3509 53.2247 62.4958 55.3683 62.8852C57.512 63.2745 59.582 61.761 59.9919 59.5045C60.0128 59.3896 60.0289 59.275 60.0405 59.161C60.0506 59.1413 60.0576 59.1195 60.0606 59.0959Z" fill="#AEEEFF"/>
<path d="M55.5953 83.6782C55.9687 80.787 53.6013 75.9291 53.0181 75.8232C52.4312 75.7166 48.6573 78.3944 47.8409 82.2682C47.8358 82.2926 47.8352 82.3168 47.8385 82.34C47.8095 82.4502 47.7845 82.5625 47.7638 82.6767C47.3539 84.9332 48.7594 87.078 50.903 87.4674C53.0467 87.8568 55.1167 86.3432 55.5266 84.0868C55.5474 83.9719 55.5636 83.8573 55.5752 83.7433C55.5853 83.7236 55.5922 83.7017 55.5953 83.6782Z" fill="#AEEEFF"/>
<path d="M76.8799 62.1511C77.2534 59.2599 74.8859 54.402 74.3028 54.2961C73.7159 54.1895 69.942 56.8673 69.1256 60.7411C69.1204 60.7655 69.1199 60.7897 69.1232 60.8129C69.0942 60.9231 69.0692 61.0354 69.0484 61.1496C68.6385 63.4061 70.044 65.5509 72.1877 65.9403C74.3313 66.3297 76.4014 64.8161 76.8112 62.5597C76.8321 62.4448 76.8483 62.3302 76.8599 62.2162C76.8699 62.1965 76.8769 62.1746 76.8799 62.1511Z" fill="#AEEEFF"/>
<path d="M55.2289 18.4097C59.4765 18.4097 63.052 21.4922 64.1133 25.6833C65.7997 23.6417 68.2639 22.3546 71.0086 22.3546C75.4624 22.3546 79.1774 25.7438 80.0296 30.2464C80.0907 30.2451 80.152 30.2444 80.2134 30.2444C85.297 30.2444 89.4182 34.6599 89.4182 40.1067C89.4182 40.3277 89.4115 40.5469 89.3981 40.7642H89.4182C89.4182 48.7529 82.9421 55.2289 74.9535 55.2289H35.5043C27.5156 55.2289 21.0396 48.7529 21.0396 40.7642H21.0597C21.0464 40.5469 21.0396 40.3277 21.0396 40.1067C21.0396 34.6599 25.1607 30.2444 30.2444 30.2444C30.8533 30.2444 31.4484 30.3078 32.0243 30.4287C33.2381 26.5022 36.6923 23.6696 40.7642 23.6696C42.8617 23.6696 44.7955 24.4213 46.3435 25.6871C47.4036 21.4941 50.98 18.4097 55.2289 18.4097Z" fill="#B3D9FF"/>
</g>
<defs>
<filter id="filter0_d" x="0" y="0" width="118.458" height="118.458" filterUnits="userSpaceOnUse" color-interpolation-filters="sRGB">
<feFlood flood-opacity="0" result="BackgroundImageFix"/>
<feColorMatrix in="SourceAlpha" type="matrix" values="0 0 0 0 0 0 0 0 0 0 0 0 0 0 0 0 0 0 127 0"/>
<feOffset dx="4" dy="4"/>
<feGaussianBlur stdDeviation="2"/>
<feColorMatrix type="matrix" values="0 0 0 0 0 0 0 0 0 0 0 0 0 0 0 0 0 0 0.25 0"/>
<feBlend mode="normal" in2="BackgroundImageFix" result="effect1_dropShadow"/>
<feBlend mode="normal" in="SourceGraphic" in2="effect1_dropShadow" result="shape"/>
</filter>
</defs>
</svg>
