<svg width="90" height="81" viewBox="0 0 90 81" fill="none" xmlns="http://www.w3.org/2000/svg">
<path d="M11.0084 23.8888L16.0939 22.944C20.5326 22.1193 24.4643 19.5711 27.0296 15.8561L30.52 10.8016C35.561 3.50152 44.1211 -0.545373 52.9619 0.191894L54.069 0.28422C60.3694 0.809629 66.1498 3.98705 69.9699 9.02466L73.3115 13.4313C75.8289 16.7511 76.4774 21.1263 75.0312 25.0335C73.3206 29.6549 74.5594 34.8517 78.1708 38.2044L85.1307 44.666C90.5368 49.6849 90.6808 58.2308 85.5145 63.4963C81.8521 67.2291 76.2651 68.4193 71.418 66.4565C66.8571 64.6096 61.6429 65.5158 57.9726 68.7932L49.9668 75.9419C38.8571 85.8622 21.1895 78.8532 19.902 64.0147C19.3536 57.694 15.5334 52.1228 9.83501 49.3335L7.67705 48.2772C4.90861 46.9221 2.71361 44.6249 1.48582 41.7977C-1.83322 34.155 2.81628 25.4108 11.0084 23.8888Z" fill="url(#paint0_linear)"/>
<defs>
<linearGradient id="paint0_linear" x1="45" y1="-1" x2="45" y2="100" gradientUnits="userSpaceOnUse">
<stop stop-color="#59DCFF" stop-opacity="0.63"/>
<stop offset="1" stop-color="#1BAFEF"/>
</linearGradient>
</defs>
</svg>
